<mxfile host="app.diagrams.net" agent="Mozilla/5.0 (Macintosh; Intel Mac OS X 10_15_7) AppleWebKit/537.36 (KHTML, like Gecko) Chrome/135.0.0.0 Safari/537.36" version="26.2.14">
  <diagram name="Page-1" id="pUIkN4_WFaYc8EIKQ2MX">
    <mxGraphModel dx="1205" dy="784" grid="1" gridSize="10" guides="1" tooltips="1" connect="1" arrows="1" fold="1" page="1" pageScale="1" pageWidth="850" pageHeight="1100" math="0" shadow="0">
      <root>
        <mxCell id="0" />
        <mxCell id="1" parent="0" />
        <mxCell id="4eNCMHcKZMn6VEoY2vAB-1" value="&lt;h1&gt;Web Crawler&lt;/h1&gt;&lt;div&gt;&lt;ul&gt;&lt;li style=&quot;text-align: left;&quot;&gt;extract text from web and store it so we can train our LLM&lt;/li&gt;&lt;/ul&gt;&lt;/div&gt;" style="text;html=1;align=center;verticalAlign=middle;resizable=0;points=[];autosize=1;strokeColor=none;fillColor=none;" vertex="1" parent="1">
          <mxGeometry x="230" width="370" height="100" as="geometry" />
        </mxCell>
        <mxCell id="4eNCMHcKZMn6VEoY2vAB-2" value="&lt;h2&gt;Functional Requirements&lt;/h2&gt;&lt;div&gt;&lt;ol&gt;&lt;li style=&quot;text-align: left;&quot;&gt;Crawl the web based on seed URLs&lt;/li&gt;&lt;li style=&quot;text-align: left;&quot;&gt;Extract text and store it&lt;/li&gt;&lt;/ol&gt;&lt;/div&gt;" style="text;html=1;align=center;verticalAlign=middle;resizable=0;points=[];autosize=1;strokeColor=none;fillColor=none;" vertex="1" parent="1">
          <mxGeometry x="40.64" y="90" width="250" height="110" as="geometry" />
        </mxCell>
        <mxCell id="4eNCMHcKZMn6VEoY2vAB-3" value="&lt;h2&gt;Non-Functional Requirements&lt;/h2&gt;&lt;div style=&quot;text-align: left;&quot;&gt;&lt;ul&gt;&lt;li&gt;Fault tolerance&lt;/li&gt;&lt;li&gt;Politeness (respect robots.txt)&lt;/li&gt;&lt;li&gt;Scale to 10B pages&lt;/li&gt;&lt;li&gt;Efficiently crawl &amp;lt; 5 days&lt;/li&gt;&lt;/ul&gt;&lt;/div&gt;" style="text;html=1;align=center;verticalAlign=middle;resizable=0;points=[];autosize=1;strokeColor=none;fillColor=none;" vertex="1" parent="1">
          <mxGeometry x="545" y="90" width="280" height="130" as="geometry" />
        </mxCell>
        <mxCell id="4eNCMHcKZMn6VEoY2vAB-4" value="&lt;h2&gt;Scale&lt;/h2&gt;&lt;div&gt;&lt;ul&gt;&lt;li style=&quot;text-align: left;&quot;&gt;10B web pages&lt;/li&gt;&lt;li style=&quot;text-align: left;&quot;&gt;2MB/page avg&lt;/li&gt;&lt;li style=&quot;text-align: left;&quot;&gt;5 days to crawl&lt;/li&gt;&lt;/ul&gt;&lt;/div&gt;" style="text;html=1;align=center;verticalAlign=middle;resizable=0;points=[];autosize=1;strokeColor=none;fillColor=none;" vertex="1" parent="1">
          <mxGeometry x="340" y="150" width="150" height="120" as="geometry" />
        </mxCell>
        <mxCell id="4eNCMHcKZMn6VEoY2vAB-5" value="&lt;h2&gt;Core Entities&lt;/h2&gt;&lt;div&gt;Text Data | URL Metadata | Domain Metadata&lt;/div&gt;" style="text;html=1;align=center;verticalAlign=middle;resizable=0;points=[];autosize=1;strokeColor=none;fillColor=none;" vertex="1" parent="1">
          <mxGeometry x="45" y="210" width="270" height="80" as="geometry" />
        </mxCell>
        <mxCell id="4eNCMHcKZMn6VEoY2vAB-6" value="&lt;h2&gt;Out of Scope&lt;/h2&gt;&lt;div&gt;&lt;ul&gt;&lt;li style=&quot;text-align: left;&quot;&gt;security&lt;/li&gt;&lt;/ul&gt;&lt;/div&gt;" style="text;html=1;align=center;verticalAlign=middle;resizable=0;points=[];autosize=1;strokeColor=none;fillColor=none;" vertex="1" parent="1">
          <mxGeometry x="580" y="210" width="140" height="90" as="geometry" />
        </mxCell>
        <mxCell id="4eNCMHcKZMn6VEoY2vAB-7" value="&lt;h2&gt;Data Flow&lt;/h2&gt;&lt;div&gt;0. Init Frontier queue&amp;nbsp;&lt;/div&gt;&lt;div&gt;1. get seed URLs from queue | 2. Fetch HTML | 3. Extract Text | 4. Store in DB | 5. Extract eligible URLs and push to Frontier&amp;nbsp;&lt;/div&gt;&lt;div&gt;&lt;br&gt;&lt;/div&gt;" style="text;html=1;align=center;verticalAlign=middle;resizable=0;points=[];autosize=1;strokeColor=none;fillColor=none;" vertex="1" parent="1">
          <mxGeometry x="80" y="285" width="690" height="110" as="geometry" />
        </mxCell>
        <mxCell id="4eNCMHcKZMn6VEoY2vAB-8" value="repeat 1-5" style="whiteSpace=wrap;html=1;shape=mxgraph.basic.oval_callout" vertex="1" parent="1">
          <mxGeometry x="540" y="290" width="100" height="60" as="geometry" />
        </mxCell>
        <mxCell id="4eNCMHcKZMn6VEoY2vAB-9" value="&lt;h2&gt;High Level Design&lt;/h2&gt;" style="text;html=1;align=center;verticalAlign=middle;resizable=0;points=[];autosize=1;strokeColor=none;fillColor=none;" vertex="1" parent="1">
          <mxGeometry x="340" y="387" width="180" height="60" as="geometry" />
        </mxCell>
        <mxCell id="4eNCMHcKZMn6VEoY2vAB-20" style="edgeStyle=orthogonalEdgeStyle;rounded=0;orthogonalLoop=1;jettySize=auto;html=1;entryX=0;entryY=0.25;entryDx=0;entryDy=0;" edge="1" parent="1" source="4eNCMHcKZMn6VEoY2vAB-10" target="4eNCMHcKZMn6VEoY2vAB-12">
          <mxGeometry relative="1" as="geometry" />
        </mxCell>
        <mxCell id="4eNCMHcKZMn6VEoY2vAB-10" value="" style="points=[];aspect=fixed;html=1;align=center;shadow=0;dashed=0;fillColor=#FF6A00;strokeColor=none;shape=mxgraph.alibaba_cloud.mq_message_queue;" vertex="1" parent="1">
          <mxGeometry x="88" y="503" width="45" height="49.8" as="geometry" />
        </mxCell>
        <mxCell id="4eNCMHcKZMn6VEoY2vAB-11" value="Frontier URL Queue" style="text;html=1;align=center;verticalAlign=middle;resizable=0;points=[];autosize=1;strokeColor=none;fillColor=none;" vertex="1" parent="1">
          <mxGeometry x="55" y="471" width="130" height="30" as="geometry" />
        </mxCell>
        <mxCell id="4eNCMHcKZMn6VEoY2vAB-41" style="edgeStyle=orthogonalEdgeStyle;rounded=0;orthogonalLoop=1;jettySize=auto;html=1;" edge="1" parent="1" source="4eNCMHcKZMn6VEoY2vAB-12" target="4eNCMHcKZMn6VEoY2vAB-10">
          <mxGeometry relative="1" as="geometry" />
        </mxCell>
        <mxCell id="4eNCMHcKZMn6VEoY2vAB-12" value="Crawlers" style="shape=process;whiteSpace=wrap;html=1;backgroundOutline=1;" vertex="1" parent="1">
          <mxGeometry x="220" y="583" width="120" height="60" as="geometry" />
        </mxCell>
        <mxCell id="4eNCMHcKZMn6VEoY2vAB-13" value="" style="points=[];aspect=fixed;html=1;align=center;shadow=0;dashed=0;fillColor=#FF6A00;strokeColor=none;shape=mxgraph.alibaba_cloud.dns_domain_name_system;" vertex="1" parent="1">
          <mxGeometry x="189.36" y="443" width="45.64" height="44.9" as="geometry" />
        </mxCell>
        <mxCell id="4eNCMHcKZMn6VEoY2vAB-14" value="" style="shape=image;html=1;verticalAlign=top;verticalLabelPosition=bottom;labelBackgroundColor=#ffffff;imageAspect=0;aspect=fixed;image=https://cdn1.iconfinder.com/data/icons/material-core/18/drive-site-128.png" vertex="1" parent="1">
          <mxGeometry x="425" y="447" width="30" height="30" as="geometry" />
        </mxCell>
        <mxCell id="4eNCMHcKZMn6VEoY2vAB-15" value="Webpages" style="text;html=1;align=center;verticalAlign=middle;resizable=0;points=[];autosize=1;strokeColor=none;fillColor=none;" vertex="1" parent="1">
          <mxGeometry x="490" y="447" width="80" height="30" as="geometry" />
        </mxCell>
        <mxCell id="4eNCMHcKZMn6VEoY2vAB-23" value="" style="edgeStyle=orthogonalEdgeStyle;rounded=0;orthogonalLoop=1;jettySize=auto;html=1;" edge="1" parent="1" source="4eNCMHcKZMn6VEoY2vAB-16" target="4eNCMHcKZMn6VEoY2vAB-12">
          <mxGeometry relative="1" as="geometry" />
        </mxCell>
        <mxCell id="4eNCMHcKZMn6VEoY2vAB-16" value="" style="outlineConnect=0;dashed=0;verticalLabelPosition=bottom;verticalAlign=top;align=center;html=1;shape=mxgraph.aws3.redis;fillColor=#2E73B8;gradientColor=none;" vertex="1" parent="1">
          <mxGeometry x="425" y="540" width="40" height="43" as="geometry" />
        </mxCell>
        <mxCell id="4eNCMHcKZMn6VEoY2vAB-17" value="Rate Limiter" style="text;html=1;align=center;verticalAlign=middle;resizable=0;points=[];autosize=1;strokeColor=none;fillColor=none;" vertex="1" parent="1">
          <mxGeometry x="405" y="513.5" width="90" height="30" as="geometry" />
        </mxCell>
        <mxCell id="4eNCMHcKZMn6VEoY2vAB-18" value="" style="outlineConnect=0;dashed=0;verticalLabelPosition=bottom;verticalAlign=top;align=center;html=1;shape=mxgraph.aws3.s3;fillColor=#E05243;gradientColor=none;" vertex="1" parent="1">
          <mxGeometry x="605" y="533" width="60" height="50" as="geometry" />
        </mxCell>
        <mxCell id="4eNCMHcKZMn6VEoY2vAB-19" value="S3 Text data" style="text;html=1;align=center;verticalAlign=middle;resizable=0;points=[];autosize=1;strokeColor=none;fillColor=none;" vertex="1" parent="1">
          <mxGeometry x="585" y="501" width="90" height="30" as="geometry" />
        </mxCell>
        <mxCell id="4eNCMHcKZMn6VEoY2vAB-24" value="" style="endArrow=classic;html=1;rounded=0;exitX=1;exitY=1;exitDx=0;exitDy=0;" edge="1" parent="1" source="4eNCMHcKZMn6VEoY2vAB-12">
          <mxGeometry width="50" height="50" relative="1" as="geometry">
            <mxPoint x="495" y="643" as="sourcePoint" />
            <mxPoint x="595" y="563" as="targetPoint" />
          </mxGeometry>
        </mxCell>
        <mxCell id="4eNCMHcKZMn6VEoY2vAB-25" value="&lt;i&gt;save HTML&lt;/i&gt;" style="text;html=1;align=center;verticalAlign=middle;resizable=0;points=[];autosize=1;strokeColor=none;fillColor=none;" vertex="1" parent="1">
          <mxGeometry x="435" y="603" width="80" height="30" as="geometry" />
        </mxCell>
        <mxCell id="4eNCMHcKZMn6VEoY2vAB-26" value="" style="endArrow=classic;startArrow=classic;html=1;rounded=0;entryX=0.887;entryY=0.935;entryDx=0;entryDy=0;entryPerimeter=0;" edge="1" parent="1" target="4eNCMHcKZMn6VEoY2vAB-13">
          <mxGeometry width="50" height="50" relative="1" as="geometry">
            <mxPoint x="285" y="583" as="sourcePoint" />
            <mxPoint x="375" y="473" as="targetPoint" />
          </mxGeometry>
        </mxCell>
        <mxCell id="4eNCMHcKZMn6VEoY2vAB-27" value="" style="outlineConnect=0;dashed=0;verticalLabelPosition=bottom;verticalAlign=top;align=center;html=1;shape=mxgraph.aws3.redis;fillColor=#2E73B8;gradientColor=none;" vertex="1" parent="1">
          <mxGeometry x="285" y="507" width="40" height="43" as="geometry" />
        </mxCell>
        <mxCell id="4eNCMHcKZMn6VEoY2vAB-28" value="local IP cache" style="text;html=1;align=center;verticalAlign=middle;resizable=0;points=[];autosize=1;strokeColor=none;fillColor=none;" vertex="1" parent="1">
          <mxGeometry x="260.64" y="477" width="100" height="30" as="geometry" />
        </mxCell>
        <mxCell id="4eNCMHcKZMn6VEoY2vAB-29" value="URL metadata" style="shape=cylinder3;whiteSpace=wrap;html=1;boundedLbl=1;backgroundOutline=1;size=15;" vertex="1" parent="1">
          <mxGeometry x="545" y="633" width="60" height="80" as="geometry" />
        </mxCell>
        <mxCell id="4eNCMHcKZMn6VEoY2vAB-32" value="" style="endArrow=classic;html=1;rounded=0;exitX=0.5;exitY=1;exitDx=0;exitDy=0;entryX=0;entryY=0.5;entryDx=0;entryDy=0;entryPerimeter=0;" edge="1" parent="1" source="4eNCMHcKZMn6VEoY2vAB-12" target="4eNCMHcKZMn6VEoY2vAB-29">
          <mxGeometry width="50" height="50" relative="1" as="geometry">
            <mxPoint x="325" y="523" as="sourcePoint" />
            <mxPoint x="375" y="473" as="targetPoint" />
          </mxGeometry>
        </mxCell>
        <mxCell id="4eNCMHcKZMn6VEoY2vAB-33" value="&lt;i&gt;update URL status&lt;/i&gt;" style="text;html=1;align=center;verticalAlign=middle;resizable=0;points=[];autosize=1;strokeColor=none;fillColor=none;" vertex="1" parent="1">
          <mxGeometry x="340" y="658" width="120" height="30" as="geometry" />
        </mxCell>
        <mxCell id="4eNCMHcKZMn6VEoY2vAB-35" value="" style="points=[];aspect=fixed;html=1;align=center;shadow=0;dashed=0;fillColor=#FF6A00;strokeColor=none;shape=mxgraph.alibaba_cloud.mq_message_queue;" vertex="1" parent="1">
          <mxGeometry x="262.5" y="681" width="45" height="49.8" as="geometry" />
        </mxCell>
        <mxCell id="4eNCMHcKZMn6VEoY2vAB-36" value="Parsing Queue" style="text;html=1;align=center;verticalAlign=middle;resizable=0;points=[];autosize=1;strokeColor=none;fillColor=none;" vertex="1" parent="1">
          <mxGeometry x="230" y="658" width="100" height="30" as="geometry" />
        </mxCell>
        <mxCell id="4eNCMHcKZMn6VEoY2vAB-37" value="Parsing Worker" style="shape=process;whiteSpace=wrap;html=1;backgroundOutline=1;" vertex="1" parent="1">
          <mxGeometry x="390" y="713" width="120" height="60" as="geometry" />
        </mxCell>
        <mxCell id="4eNCMHcKZMn6VEoY2vAB-38" value="[url, s3link]" style="text;html=1;align=center;verticalAlign=middle;resizable=0;points=[];autosize=1;strokeColor=none;fillColor=none;" vertex="1" parent="1">
          <mxGeometry x="235" y="730.8" width="80" height="30" as="geometry" />
        </mxCell>
        <mxCell id="4eNCMHcKZMn6VEoY2vAB-39" style="edgeStyle=orthogonalEdgeStyle;rounded=0;orthogonalLoop=1;jettySize=auto;html=1;entryX=-0.012;entryY=0.617;entryDx=0;entryDy=0;entryPerimeter=0;" edge="1" parent="1" source="4eNCMHcKZMn6VEoY2vAB-35" target="4eNCMHcKZMn6VEoY2vAB-37">
          <mxGeometry relative="1" as="geometry" />
        </mxCell>
        <mxCell id="4eNCMHcKZMn6VEoY2vAB-42" value="&lt;i&gt;extracted URLs&lt;/i&gt;" style="text;html=1;align=center;verticalAlign=middle;resizable=0;points=[];autosize=1;strokeColor=none;fillColor=none;" vertex="1" parent="1">
          <mxGeometry x="45" y="613" width="110" height="30" as="geometry" />
        </mxCell>
        <mxCell id="4eNCMHcKZMn6VEoY2vAB-43" value="" style="endArrow=classic;startArrow=classic;html=1;rounded=0;exitX=0.604;exitY=0.017;exitDx=0;exitDy=0;exitPerimeter=0;entryX=0.5;entryY=1;entryDx=0;entryDy=0;entryPerimeter=0;" edge="1" parent="1" source="4eNCMHcKZMn6VEoY2vAB-12" target="4eNCMHcKZMn6VEoY2vAB-27">
          <mxGeometry width="50" height="50" relative="1" as="geometry">
            <mxPoint x="325" y="523" as="sourcePoint" />
            <mxPoint x="375" y="473" as="targetPoint" />
          </mxGeometry>
        </mxCell>
        <mxCell id="4eNCMHcKZMn6VEoY2vAB-44" value="&lt;h3&gt;robots.txt:&lt;/h3&gt;&lt;div&gt;User-agent: *&lt;/div&gt;&lt;div&gt;Disallow: /path&lt;/div&gt;&lt;div&gt;Crawl-Delay: 10&lt;/div&gt;&lt;div&gt;&lt;br&gt;&lt;/div&gt;" style="text;html=1;align=center;verticalAlign=middle;resizable=0;points=[];autosize=1;strokeColor=#666666;fillColor=#f5f5f5;fontColor=#333333;rounded=1;shadow=1;" vertex="1" parent="1">
          <mxGeometry x="710" y="443" width="110" height="120" as="geometry" />
        </mxCell>
        <mxCell id="4eNCMHcKZMn6VEoY2vAB-45" value="&lt;h3&gt;&lt;span style=&quot;background-color: transparent; color: light-dark(rgb(0, 0, 0), rgb(255, 255, 255));&quot;&gt;Crawler:&lt;/span&gt;&lt;/h3&gt;&lt;ul&gt;&lt;li&gt;&lt;span style=&quot;background-color: transparent; color: light-dark(rgb(0, 0, 0), rgb(255, 255, 255));&quot;&gt;get URL off the Frontier queue&lt;/span&gt;&lt;/li&gt;&lt;li&gt;&lt;span style=&quot;background-color: transparent; color: light-dark(rgb(0, 0, 0), rgb(255, 255, 255));&quot;&gt;fetch the webpage&amp;nbsp;&lt;/span&gt;&lt;/li&gt;&lt;li&gt;&lt;span style=&quot;background-color: transparent; color: light-dark(rgb(0, 0, 0), rgb(255, 255, 255));&quot;&gt;extract text&lt;/span&gt;&lt;/li&gt;&lt;li&gt;&lt;span style=&quot;background-color: transparent; color: light-dark(rgb(0, 0, 0), rgb(255, 255, 255));&quot;&gt;extract URLs&lt;/span&gt;&lt;/li&gt;&lt;/ul&gt;" style="text;html=1;align=left;verticalAlign=middle;resizable=0;points=[];autosize=1;strokeColor=none;fillColor=none;" vertex="1" parent="1">
          <mxGeometry x="55" y="753" width="220" height="130" as="geometry" />
        </mxCell>
        <mxCell id="4eNCMHcKZMn6VEoY2vAB-46" value="&lt;h3&gt;Parsing Worker:&lt;/h3&gt;&lt;div&gt;&lt;ul&gt;&lt;li style=&quot;text-align: left;&quot;&gt;extract text&lt;/li&gt;&lt;li style=&quot;text-align: left;&quot;&gt;save text&lt;/li&gt;&lt;li style=&quot;text-align: left;&quot;&gt;fetch URL&lt;/li&gt;&lt;/ul&gt;&lt;/div&gt;" style="text;html=1;align=center;verticalAlign=middle;resizable=0;points=[];autosize=1;strokeColor=none;fillColor=none;" vertex="1" parent="1">
          <mxGeometry x="385" y="773" width="130" height="110" as="geometry" />
        </mxCell>
        <mxCell id="4eNCMHcKZMn6VEoY2vAB-47" value="&lt;h3&gt;Frontier Queue:&lt;/h3&gt;&lt;div&gt;&lt;ul&gt;&lt;li style=&quot;&quot;&gt;SQS (or Kafka)&lt;/li&gt;&lt;li&gt;exponential backoff for retries&lt;/li&gt;&lt;li&gt;max retry count&lt;span style=&quot;white-space-collapse: preserve;&quot;&gt;&#x9;&lt;/span&gt;&lt;/li&gt;&lt;/ul&gt;&lt;/div&gt;" style="text;html=1;align=left;verticalAlign=middle;resizable=0;points=[];autosize=1;strokeColor=none;fillColor=none;" vertex="1" parent="1">
          <mxGeometry x="55" y="643" width="220" height="110" as="geometry" />
        </mxCell>
        <mxCell id="4eNCMHcKZMn6VEoY2vAB-48" value="&lt;h3&gt;URL Metadata DB:&lt;/h3&gt;&lt;div&gt;&lt;ul&gt;&lt;li&gt;&lt;b&gt;URL&lt;/b&gt;: id, url, s3link&lt;/li&gt;&lt;li&gt;&lt;b&gt;Domain&lt;/b&gt;: domain, lastCrawledTime, userAgent,&amp;nbsp;&lt;/li&gt;&lt;li&gt;disallow, crawlDelay&lt;/li&gt;&lt;/ul&gt;&lt;/div&gt;" style="text;html=1;align=left;verticalAlign=middle;resizable=0;points=[];autosize=1;strokeColor=none;fillColor=none;" vertex="1" parent="1">
          <mxGeometry x="530" y="760.9" width="320" height="110" as="geometry" />
        </mxCell>
        <mxCell id="4eNCMHcKZMn6VEoY2vAB-50" style="edgeStyle=orthogonalEdgeStyle;rounded=0;orthogonalLoop=1;jettySize=auto;html=1;exitX=0.5;exitY=1;exitDx=0;exitDy=0;" edge="1" parent="1" source="4eNCMHcKZMn6VEoY2vAB-12">
          <mxGeometry relative="1" as="geometry">
            <mxPoint x="280" y="670" as="targetPoint" />
          </mxGeometry>
        </mxCell>
        <mxCell id="4eNCMHcKZMn6VEoY2vAB-51" value="&lt;h2&gt;Deep Dives&lt;/h2&gt;" style="text;html=1;align=center;verticalAlign=middle;resizable=0;points=[];autosize=1;strokeColor=none;fillColor=none;" vertex="1" parent="1">
          <mxGeometry x="350" y="883" width="120" height="60" as="geometry" />
        </mxCell>
        <mxCell id="4eNCMHcKZMn6VEoY2vAB-52" value="&lt;ol&gt;&lt;li&gt;Don&#39;t crawl what is already crawled/duplicate content: store and compare hash in Redis&lt;/li&gt;&lt;li&gt;Maintain a local cache of IPs in Redis&lt;/li&gt;&lt;li&gt;Crawl-delay: should have a reasonable default adaptive per domain and enforced by Rate Limiter&lt;/li&gt;&lt;li&gt;Handle dynamic content: Puppetteer&lt;/li&gt;&lt;li&gt;Monitor health of the system: CloudWatch&lt;/li&gt;&lt;li&gt;How many crawlers are needed: load test in real environment.&amp;nbsp;&lt;/li&gt;&lt;li&gt;Crawler traps: keep track of depth in the URL Metadata DB&lt;/li&gt;&lt;/ol&gt;" style="text;html=1;align=left;verticalAlign=middle;resizable=0;points=[];autosize=1;strokeColor=none;fillColor=none;" vertex="1" parent="1">
          <mxGeometry x="155" y="928" width="580" height="140" as="geometry" />
        </mxCell>
        <mxCell id="4eNCMHcKZMn6VEoY2vAB-55" style="edgeStyle=orthogonalEdgeStyle;rounded=0;orthogonalLoop=1;jettySize=auto;html=1;entryX=0.5;entryY=1;entryDx=0;entryDy=0;entryPerimeter=0;" edge="1" parent="1" source="4eNCMHcKZMn6VEoY2vAB-37" target="4eNCMHcKZMn6VEoY2vAB-29">
          <mxGeometry relative="1" as="geometry" />
        </mxCell>
        <mxCell id="4eNCMHcKZMn6VEoY2vAB-56" value="&lt;i&gt;s3url&lt;/i&gt;" style="text;html=1;align=center;verticalAlign=middle;resizable=0;points=[];autosize=1;strokeColor=none;fillColor=none;" vertex="1" parent="1">
          <mxGeometry x="565" y="718" width="50" height="30" as="geometry" />
        </mxCell>
        <mxCell id="4eNCMHcKZMn6VEoY2vAB-57" value="&lt;i&gt;download HTML&lt;/i&gt;&lt;div&gt;&lt;i&gt;save text&lt;/i&gt;&lt;/div&gt;" style="text;html=1;align=center;verticalAlign=middle;resizable=0;points=[];autosize=1;strokeColor=none;fillColor=none;" vertex="1" parent="1">
          <mxGeometry x="630" y="658" width="110" height="40" as="geometry" />
        </mxCell>
        <mxCell id="4eNCMHcKZMn6VEoY2vAB-58" value="" style="endArrow=classic;startArrow=classic;html=1;rounded=0;entryX=0.5;entryY=1;entryDx=0;entryDy=0;entryPerimeter=0;exitX=1;exitY=0.75;exitDx=0;exitDy=0;" edge="1" parent="1" source="4eNCMHcKZMn6VEoY2vAB-37" target="4eNCMHcKZMn6VEoY2vAB-18">
          <mxGeometry width="50" height="50" relative="1" as="geometry">
            <mxPoint x="650" y="613" as="sourcePoint" />
            <mxPoint x="700" y="563" as="targetPoint" />
            <Array as="points">
              <mxPoint x="635" y="760" />
            </Array>
          </mxGeometry>
        </mxCell>
        <mxCell id="4eNCMHcKZMn6VEoY2vAB-60" value="" style="shape=image;html=1;verticalAlign=top;verticalLabelPosition=bottom;labelBackgroundColor=#ffffff;imageAspect=0;aspect=fixed;image=https://cdn1.iconfinder.com/data/icons/material-core/18/drive-site-128.png" vertex="1" parent="1">
          <mxGeometry x="390" y="447" width="30" height="30" as="geometry" />
        </mxCell>
        <mxCell id="4eNCMHcKZMn6VEoY2vAB-63" value="" style="shape=image;html=1;verticalAlign=top;verticalLabelPosition=bottom;labelBackgroundColor=#ffffff;imageAspect=0;aspect=fixed;image=https://cdn1.iconfinder.com/data/icons/material-core/18/drive-site-128.png" vertex="1" parent="1">
          <mxGeometry x="460" y="447" width="30" height="30" as="geometry" />
        </mxCell>
        <mxCell id="4eNCMHcKZMn6VEoY2vAB-64" value="" style="endArrow=classic;html=1;rounded=0;" edge="1" parent="1">
          <mxGeometry width="50" height="50" relative="1" as="geometry">
            <mxPoint x="330" y="580" as="sourcePoint" />
            <mxPoint x="400" y="478" as="targetPoint" />
          </mxGeometry>
        </mxCell>
      </root>
    </mxGraphModel>
  </diagram>
</mxfile>
